PathFileType	4	(X/Y/Z)	/Users/itak/Documents/Research/Walk-IL/dataset/trc/00087_00006.trc
DataRate	CameraRate	NumFrames	NumMarkers	Units	OrigDataRate	OrigDataStartFrame	OrigNumFrames
100.000000	100.000000	4	53	mm	100.000000	375	500
Frame#	Time	LPSI			L3			STRN			T10			C7			CLAV			RBAK			LBAK			LSHO			LUPA			LAEL			LAOL			LWTS			LWPS			LFRA			LIFD			LHPS			LHTS			RSHO			RUPA			RAEL			RAOL			RWTS			RWPS			RFRA			RIFD			RHTS			RHPS			RBHD			LFHD			RFHD			LBHD			LHIP			RHIP			RASI			LASI			LKNE			LTHI			LANK			LTIP			LTOE			LMT1			LMT5			LHEE			RKNE			RTHI			RANK			RTIP			RTOE			RMT1			RMT5			RHEE			RPSI			
		X1	Y1	Z1	X2	Y2	Z2	X3	Y3	Z3	X4	Y4	Z4	X5	Y5	Z5	X6	Y6	Z6	X7	Y7	Z7	X8	Y8	Z8	X9	Y9	Z9	X10	Y10	Z10	X11	Y11	Z11	X12	Y12	Z12	X13	Y13	Z13	X14	Y14	Z14	X15	Y15	Z15	X16	Y16	Z16	X17	Y17	Z17	X18	Y18	Z18	X19	Y19	Z19	X20	Y20	Z20	X21	Y21	Z21	X22	Y22	Z22	X23	Y23	Z23	X24	Y24	Z24	X25	Y25	Z25	X26	Y26	Z26	X27	Y27	Z27	X28	Y28	Z28	X29	Y29	Z29	X30	Y30	Z30	X31	Y31	Z31	X32	Y32	Z32	X33	Y33	Z33	X34	Y34	Z34	X35	Y35	Z35	X36	Y36	Z36	X37	Y37	Z37	X38	Y38	Z38	X39	Y39	Z39	X40	Y40	Z40	X41	Y41	Z41	X42	Y42	Z42	X43	Y43	Z43	X44	Y44	Z44	X45	Y45	Z45	X46	Y46	Z46	X47	Y47	Z47	X48	Y48	Z48	X49	Y49	Z49	X50	Y50	Z50	X51	Y51	Z51	X52	Y52	Z52	X53	Y53	Z53	

376	3.75	155.8985290527344	997.3436279296875	-178.0774841308594	223.7226409912109	1069.149169921875	-146.3488006591797	340.8585815429688	1266.349609375	-371.5457763671875	202.2223663330078	1195.217041015625	-142.3013610839844	229.3003540039062	1463.538696289062	-190.7728729248047	324.4036865234375	1380.269775390625	-343.3083801269531	259.6590881347656	1323.689208984375	-101.9398803710938	129.2306213378906	1427.065795898438	-223.9192047119141	122.8716201782227	1435.027221679688	-348.2030029296875	51.3069953918457	1310.999389648438	-387.1243286132812	54.66284942626953	1105.1962890625	-455.7052612304688	93.76333618164062	1071.346923828125	-360.9625244140625	242.6525726318359	952.198486328125	-555.7460327148438	172.3771362304688	903.073486328125	-555.1511840820312	98.44332885742188	1016.172973632812	-508.295654296875	341.8560485839844	804.827880859375	-609.8307495117188	226.0437622070312	853.140869140625	-601.0028076171875	285.4021606445312	893.7310180664062	-601.1144409179688	410.5016174316406	1426.990112304688	-154.3518524169922	453.8153076171875	1360.489624023438	-108.5655136108398	455.3442687988281	1109.079467773438	-34.80453109741211	387.856689453125	1079.945678710938	-103.1803588867188	491.7950134277344	838.3986206054688	-140.8779449462891	497.040283203125	835.1483154296875	-53.57904434204102	467.4664916992188	1028.002197265625	-30.7490291595459	465.4468994140625	652.754638671875	-127.0348815917969	498.4811096191406	735.2634887695312	-147.5194702148438	515.2975463867188	742.5928344726562	-72.16559600830078	347.6493835449219	1630.4931640625	-193.75537109375	265.1014709472656	1685.224243164062	-392.9853210449219	385.1617126464844	1680.048828125	-354.2607727050781	214.8270721435547	1643.63427734375	-226.7892150878906	110.3142852783203	939.4327392578125	-312.716796875	418.6204528808594	940.3364868164062	-149.3824768066406	446.0023498535156	966.5287475585938	-270.0354919433594	206.7405090332031	951.9767456054688	-390.3797302246094	249.3603057861328	478.4861145019531	-324.4719543457031	184.0810852050781	615.5261840820312	-329.7542419433594	159.5258331298828	45.4893913269043	-165.1455230712891	195.4815521240234	243.5341186523438	-246.9799041748047	315.4655151367188	37.74424743652344	-301.7025146484375	313.017822265625	38.13819122314453	-229.8833465576172	206.2142486572266	37.23113632202148	-263.9525451660156	174.5739288330078	49.74530029296875	-73.96370697021484	517.0849609375	536.1392211914062	-355.8490295410156	489.2940368652344	790.50244140625	-262.3908081054688	574.8955078125	45.52922439575195	-358.2302551269531	540.6524047851562	413.7126770019531	-359.9643249511719	587.4774169921875	107.790885925293	-558.556396484375	536.2365112304688	86.64038848876953	-516.8265991210938	620.6111450195312	80.84998321533203	-465.7987060546875	508.6608581542969	33.97991180419922	-332.8230285644531	315.8859252929688	1004.010009765625	-114.1910781860352	
377	3.76	161.3785247802734	996.5897827148438	-182.4456787109375	229.5182189941406	1068.290283203125	-151.2574310302734	344.9385070800781	1265.20654296875	-377.2570190429688	208.0581207275391	1194.036743164062	-146.9275360107422	234.7586975097656	1462.375732421875	-195.6188507080078	328.7732849121094	1379.124267578125	-348.8498840332031	265.7754821777344	1322.467407226562	-107.0617599487305	134.3927154541016	1425.900756835938	-228.0776519775391	127.2206420898438	1433.878173828125	-352.2826232910156	55.52397918701172	1309.79638671875	-390.8910522460938	59.04803466796875	1104.117919921875	-460.0377807617188	98.51203155517578	1070.14794921875	-365.5058898925781	247.13818359375	951.792724609375	-560.96435546875	176.9884796142578	902.5075073242188	-560.2943115234375	102.8971481323242	1015.298889160156	-512.970458984375	346.5133056640625	804.7186279296875	-615.5895385742188	230.6569061279297	852.79833984375	-606.396240234375	289.9067993164062	893.5136108398438	-606.5711669921875	416.2583618164062	1425.7294921875	-160.5277099609375	459.82861328125	1359.2158203125	-115.0629959106445	461.6987915039062	1107.886962890625	-41.25524139404297	393.7574768066406	1078.664916992188	-109.0927658081055	497.5162048339844	837.0590209960938	-147.0934448242188	503.3372192382812	833.9891357421875	-59.81812286376953	473.8673706054688	1026.8466796875	-37.18972396850586	471.2975158691406	651.4710693359375	-132.7142944335938	504.1328430175781	733.9191284179688	-153.5790100097656	521.4615478515625	741.3980712890625	-78.34395599365234	353.0134887695312	1629.289672851562	-199.4256439208984	269.4353637695312	1684.127197265625	-398.1881408691406	389.7266540527344	1678.893798828125	-360.1487426757812	220.0571441650391	1642.4912109375	-231.7376251220703	114.2316741943359	938.9867553710938	-316.6961669921875	424.2994079589844	938.9419555664062	-156.3147277832031	450.6794128417969	965.1092529296875	-277.193115234375	210.0978546142578	951.094970703125	-395.1683349609375	251.1385040283203	477.3055725097656	-327.5572814941406	186.5923309326172	614.737548828125	-333.09521484375	159.5423736572266	45.6640625	-165.1980895996094	196.3375549316406	243.0625	-248.3979187011719	315.4338989257812	37.69888687133789	-301.7931213378906	312.9063720703125	38.17437362670898	-229.9532012939453	206.1806945800781	37.15015411376953	-264.01953125	174.6237487792969	50.2950439453125	-73.98801422119141	520.6986694335938	534.4940185546875	-361.6634521484375	493.9698486328125	789.0279541015625	-269.2100830078125	584.5194091796875	45.2872428894043	-380.6271057128906	545.3292846679688	413.068603515625	-369.1654052734375	591.626953125	113.5821914672852	-579.297607421875	541.633544921875	90.71418762207031	-536.989501953125	627.3734130859375	84.15809631347656	-488.2783508300781	519.0458984375	32.40180206298828	-353.9409790039062	322.0006713867188	1002.907653808594	-120.0985794067383	
378	3.77	166.9461822509766	995.8472290039062	-186.8148193359375	235.4005279541016	1067.275146484375	-156.2785491943359	349.0632629394531	1264.058349609375	-382.9802856445312	213.9563293457031	1192.840942382812	-151.583251953125	240.2490386962891	1461.201293945312	-200.4939727783203	333.1903991699219	1377.973754882812	-354.4118347167969	271.92333984375	1321.232421875	-112.2249526977539	139.5731811523438	1424.718994140625	-232.2784729003906	131.6329803466797	1432.725463867188	-356.3921508789062	59.79744338989258	1308.588745117188	-394.67578125	63.45437622070312	1103.006225585938	-464.2913208007812	103.2842483520508	1068.959594726562	-369.9594116210938	251.442626953125	951.0541381835938	-566.0235595703125	181.3505859375	901.6944580078125	-565.2286987304688	107.2617874145508	1014.305908203125	-517.5053100585938	350.6650085449219	803.9634399414062	-621.0109252929688	234.9515991210938	852.103515625	-611.5475463867188	294.1393737792969	892.8643798828125	-611.8338012695312	422.043212890625	1424.466918945312	-166.7186737060547	465.8709716796875	1357.940185546875	-121.5808410644531	468.1329345703125	1106.673095703125	-47.77777481079102	399.7326049804688	1077.3583984375	-115.0738525390625	503.3619384765625	835.7472534179688	-153.4897613525391	509.7760620117188	832.819091796875	-66.23710632324219	480.3661193847656	1025.664306640625	-43.72388458251953	477.3288269042969	650.2034912109375	-138.6412048339844	509.9446716308594	732.6099243164062	-159.8715209960938	527.7898559570312	740.2056884765625	-84.75173187255859	358.4026794433594	1628.080444335938	-205.0945281982422	273.818603515625	1683.026733398438	-403.3923950195312	394.3233642578125	1677.728515625	-366.0180358886719	225.3203887939453	1641.3408203125	-236.6986389160156	118.2179107666016	938.5173950195312	-320.6255187988281	430.0207214355469	937.5310668945312	-163.3006591796875	455.3785705566406	963.690673828125	-284.4030151367188	213.4736328125	950.2099609375	-399.9578857421875	252.91552734375	476.09521484375	-330.7450256347656	189.0828094482422	613.9244384765625	-336.4913940429688	159.5769348144531	45.90248489379883	-165.2397308349609	197.2103881835938	242.6079406738281	-249.8412628173828	315.3964233398438	37.65089797973633	-301.8991394042969	312.7926635742188	38.22207260131836	-230.0325012207031	206.1781158447266	37.08611679077148	-264.0749816894531	174.7389984130859	50.93523025512695	-74.004150390625	524.2718505859375	532.8281860351562	-367.47216796875	498.6215515136719	787.489501953125	-276.0483703613281	593.1906127929688	45.38675308227539	-401.8059692382812	549.7693481445312	412.4521484375	-378.0398559570312	595.2897338867188	119.1133651733398	-598.7455444335938	546.4497680664062	94.69220733642578	-555.96728515625	633.3936157226562	87.45289611816406	-509.3611145019531	528.4239501953125	31.26469993591309	-374.0013732910156	328.2232360839844	1001.854431152344	-126.0168151855469	
379	3.78	172.6040496826172	995.1057739257812	-191.1932525634766	241.3656005859375	1066.09130859375	-161.392333984375	353.2359008789062	1262.906372070312	-388.7167053222656	219.9146881103516	1191.637939453125	-156.2688598632812	245.781982421875	1460.019897460938	-205.4021759033203	337.6546630859375	1376.820190429688	-359.9975891113281	278.1063537597656	1319.992065429688	-117.4311904907227	144.7802124023438	1423.5283203125	-236.5246276855469	136.1075439453125	1431.57470703125	-360.5344543457031	64.12541198730469	1307.381225585938	-398.4779663085938	67.87430572509766	1101.868286132812	-468.4655151367188	108.0790710449219	1067.786499023438	-374.3204040527344	255.5634613037109	949.9906005859375	-570.9242553710938	185.4604339599609	900.6408081054688	-569.9578857421875	111.5341949462891	1013.200988769531	-521.8992919921875	354.32666015625	802.5930786132812	-626.1163940429688	238.9253387451172	851.0662231445312	-616.4576416015625	298.1021728515625	891.7923583984375	-616.8994750976562	427.858642578125	1423.208618164062	-172.9312591552734	471.9515380859375	1356.669799804688	-128.1261291503906	474.6460876464844	1105.447509765625	-54.37441253662109	405.7921752929688	1076.04150390625	-121.1370086669922	509.3379516601562	834.4696044921875	-160.0644378662109	516.3455200195312	831.6443481445312	-72.83383941650391	486.9599609375	1024.462890625	-50.35113143920898	483.5354919433594	648.961181640625	-144.8185577392578	515.9159545898438	731.3408203125	-166.3923645019531	534.2723999023438	739.0197143554688	-91.38515472412109	363.8164978027344	1626.866821289062	-210.7633514404297	278.2510986328125	1681.930786132812	-408.5995178222656	398.9537353515625	1676.558837890625	-371.8636474609375	230.6165924072266	1640.185668945312	-241.674560546875	122.2573318481445	938.0111694335938	-324.5127258300781	435.7832946777344	936.1167602539062	-170.3306732177734	460.0880737304688	962.2776489257812	-291.6549987792969	216.8712768554688	949.3223266601562	-404.7519836425781	254.716552734375	474.8617553710938	-334.0231628417969	191.5625915527344	613.0907592773438	-339.9364318847656	159.6482391357422	46.21097946166992	-165.25732421875	198.1327972412109	242.1776428222656	-251.2949523925781	315.3546142578125	37.60188293457031	-302.0216064453125	312.6984558105469	38.2743034362793	-230.1148986816406	206.2148590087891	37.05364227294922	-264.1123046875	174.9401245117188	51.67401123046875	-74.00379943847656	527.8214111328125	531.1998901367188	-373.3593139648438	503.2392578125	785.9028930664062	-282.9275512695312	600.859375	45.69284820556641	-421.5362548828125	553.9970092773438	411.8305358886719	-386.6572570800781	598.6083374023438	124.1702194213867	-616.7645263671875	550.78125	98.38899993896484	-573.6392211914062	638.724365234375	90.55924224853516	-528.8323364257812	536.6993408203125	30.44604682922363	-392.7983703613281	334.5382080078125	1000.847839355469	-131.9324645996094	
